HIERARCHY
ROOT Hips
{
	OFFSET 0.000000 71.427986 0.000000
	CHANNELS 6 Xposition Yposition Zposition Xrotation Yrotation Zrotation
	JOINT Pelvis
	{
		OFFSET 0.000000 0.000000 0.000000
		CHANNELS 3 Xrotation Yrotation Zrotation
		JOINT LeftUpLeg
		{
			OFFSET 6.797100 -2.508499 -1.318700
			CHANNELS 3 Xrotation Yrotation Zrotation
			JOINT LeftLeg
			{
				OFFSET 0.069008 -29.241863 0.690200
				CHANNELS 3 Xrotation Yrotation Zrotation
				JOINT LeftFoot
				{
					OFFSET -0.069008 -29.568123 -0.266800
					CHANNELS 3 Xrotation Yrotation Zrotation
					JOINT LeftToeBase
					{
						OFFSET 3.145500 -8.631000 16.059900
						CHANNELS 3 Xrotation Yrotation Zrotation
						End Site
						{
							OFFSET 0.000000 18.501587 0.000000
						}
					}
				}
			}
			JOINT Left_ShortSleeve
			{
				OFFSET 0.265923 -10.480953 1.153800
				CHANNELS 3 Xrotation Yrotation Zrotation
				End Site
				{
					OFFSET 1.725763 19.823879 0.000000
				}
			}
		}
		JOINT RightUpLeg
		{
			OFFSET -6.797100 -2.508499 -1.318700
			CHANNELS 3 Xrotation Yrotation Zrotation
			JOINT RightLeg
			{
				OFFSET -0.082453 -29.241932 0.688000
				CHANNELS 3 Xrotation Yrotation Zrotation
				JOINT RightFoot
				{
					OFFSET 0.082453 -29.568058 -0.264600
					CHANNELS 3 Xrotation Yrotation Zrotation
					JOINT RightToeBase
					{
						OFFSET -3.115300 -8.682800 16.113400
						CHANNELS 3 Xrotation Yrotation Zrotation
						End Site
						{
							OFFSET 0.000000 18.567114 0.000000
						}
					}
				}
			}
			JOINT Right_ShortSleeve
			{
				OFFSET -0.265923 -10.480953 1.153800
				CHANNELS 3 Xrotation Yrotation Zrotation
				End Site
				{
					OFFSET -1.725766 19.823910 0.000000
				}
			}
		}
	}
	JOINT Spine
	{
		OFFSET 0.000000 13.368103 0.470500
		CHANNELS 3 Xrotation Yrotation Zrotation
		JOINT Spine1
		{
			OFFSET 0.147000 13.837402 0.538800
			CHANNELS 3 Xrotation Yrotation Zrotation
			JOINT Spine2
			{
				OFFSET 0.168000 16.242897 -1.435500
				CHANNELS 3 Xrotation Yrotation Zrotation
				JOINT Neck
				{
					OFFSET 0.217200 18.631500 -1.679100
					CHANNELS 3 Xrotation Yrotation Zrotation
					JOINT Head
					{
						OFFSET 0.000000 6.599396 1.385900
						CHANNELS 3 Xrotation Yrotation Zrotation
						JOINT Hat
						{
							OFFSET -0.532200 27.220596 -10.096100
							CHANNELS 3 Xrotation Yrotation Zrotation
							End Site
							{
								OFFSET 0.000000 22.029861 0.000000
							}
						}
						JOINT HairD
						{
							OFFSET -10.777400 17.437393 -1.325900
							CHANNELS 3 Xrotation Yrotation Zrotation
							JOINT HairD1
							{
								OFFSET -3.290299 -11.051193 1.062200
								CHANNELS 3 Xrotation Yrotation Zrotation
								End Site
								{
									OFFSET 0.000000 11.579437 0.000000
								}
							}
						}
						JOINT HairB
						{
							OFFSET -10.777400 17.437393 1.467900
							CHANNELS 3 Xrotation Yrotation Zrotation
							JOINT HairB1
							{
								OFFSET -1.561200 -12.956299 3.590200
								CHANNELS 3 Xrotation Yrotation Zrotation
								End Site
								{
									OFFSET 0.000000 13.534866 0.000000
								}
							}
						}
						JOINT HairA
						{
							OFFSET 9.713100 17.437393 1.467900
							CHANNELS 3 Xrotation Yrotation Zrotation
							JOINT HairA1
							{
								OFFSET 1.561200 -12.956299 3.590200
								CHANNELS 3 Xrotation Yrotation Zrotation
								End Site
								{
									OFFSET 0.000000 13.534866 0.000000
								}
							}
						}
						JOINT HairC
						{
							OFFSET 9.713100 17.437393 -1.325900
							CHANNELS 3 Xrotation Yrotation Zrotation
							JOINT HairC1
							{
								OFFSET 3.290300 -11.051193 1.062200
								CHANNELS 3 Xrotation Yrotation Zrotation
								End Site
								{
									OFFSET 0.000000 11.579437 0.000000
								}
							}
						}
					}
				}
				JOINT LeftShoulder
				{
					OFFSET 5.101800 15.108002 -2.763700
					CHANNELS 3 Xrotation Yrotation Zrotation
					JOINT LeftArm
					{
						OFFSET 9.825497 2.506317 -1.597400
						CHANNELS 3 Xrotation Yrotation Zrotation
						JOINT LeftForeArm
						{
							OFFSET 21.966244 0.000000 0.000000
							CHANNELS 3 Xrotation Yrotation Zrotation
							JOINT LeftHand
							{
								OFFSET 33.879036 0.000000 0.000000
								CHANNELS 3 Xrotation Yrotation Zrotation
								JOINT LeftHandThumb1
								{
									OFFSET 6.715286 -2.359680 3.363841
									CHANNELS 3 Xrotation Yrotation Zrotation
									JOINT LeftHandThumb2
									{
										OFFSET 2.507072 -1.447464 1.447461
										CHANNELS 3 Xrotation Yrotation Zrotation
										JOINT LeftHandThumb3
										{
											OFFSET 2.898338 -1.673355 1.673357
											CHANNELS 3 Xrotation Yrotation Zrotation
											End Site
											{
												OFFSET -0.295959 3.727692 -0.131651
											}
										}
									}
								}
								JOINT LeftHandIndex1
								{
									OFFSET 14.190811 -0.254547 3.840278
									CHANNELS 3 Xrotation Yrotation Zrotation
									JOINT LeftHandIndex2
									{
										OFFSET 3.551727 0.000000 -0.000000
										CHANNELS 3 Xrotation Yrotation Zrotation
										JOINT LeftHandIndex3
										{
											OFFSET 2.894196 0.000000 0.000000
											CHANNELS 3 Xrotation Yrotation Zrotation
											End Site
											{
												OFFSET -1.000603 2.690872 0.366626
											}
										}
									}
								}
								JOINT LeftHandMiddle1
								{
									OFFSET 13.776489 0.000000 0.000000
									CHANNELS 3 Xrotation Yrotation Zrotation
									JOINT LeftHandMiddle2
									{
										OFFSET 3.438232 0.000000 0.000000
										CHANNELS 3 Xrotation Yrotation Zrotation
										JOINT LeftHandMiddle3
										{
											OFFSET 3.691551 0.000000 0.000000
											CHANNELS 3 Xrotation Yrotation Zrotation
											End Site
											{
												OFFSET -1.082298 3.499527 0.457670
											}
										}
									}
								}
								JOINT LeftHandRing1
								{
									OFFSET 13.966164 -0.268127 -3.067488
									CHANNELS 3 Xrotation Yrotation Zrotation
									JOINT LeftHandRing2
									{
										OFFSET 3.162567 0.000000 0.000000
										CHANNELS 3 Xrotation Yrotation Zrotation
										JOINT LeftHandRing3
										{
											OFFSET 3.324348 0.000000 0.000000
											CHANNELS 3 Xrotation Yrotation Zrotation
											End Site
											{
												OFFSET -0.861900 3.184998 0.405154
											}
										}
									}
								}
								JOINT LeftHandPinky1
								{
									OFFSET 13.131393 -0.168503 -5.746925
									CHANNELS 3 Xrotation Yrotation Zrotation
									JOINT LeftHandPinky2
									{
										OFFSET 2.849182 0.000000 0.000000
										CHANNELS 3 Xrotation Yrotation Zrotation
										JOINT LeftHandPinky3
										{
											OFFSET 2.805038 0.000000 0.000000
											CHANNELS 3 Xrotation Yrotation Zrotation
											End Site
											{
												OFFSET -0.882500 2.642609 0.325652
											}
										}
									}
								}
							}
							JOINT Left_Sleeve
							{
								OFFSET 6.592125 -0.646545 0.805568
								CHANNELS 3 Xrotation Yrotation Zrotation
								End Site
								{
									OFFSET -0.000179 20.275787 -0.000000
								}
							}
						}
					}
				}
				JOINT RightShoulder
				{
					OFFSET -5.731700 15.108002 -2.763700
					CHANNELS 3 Xrotation Yrotation Zrotation
					JOINT RightArm
					{
						OFFSET -9.825497 2.506317 -1.597400
						CHANNELS 3 Xrotation Yrotation Zrotation
						JOINT RightForeArm
						{
							OFFSET -21.966242 0.000000 0.000000
							CHANNELS 3 Xrotation Yrotation Zrotation
							JOINT RightHand
							{
								OFFSET -33.879032 0.000000 0.000000
								CHANNELS 3 Xrotation Yrotation Zrotation
								JOINT RightHandThumb1
								{
									OFFSET -6.715286 -2.359680 3.363841
									CHANNELS 3 Xrotation Yrotation Zrotation
									JOINT RightHandThumb2
									{
										OFFSET -2.507072 -1.447464 1.447461
										CHANNELS 3 Xrotation Yrotation Zrotation
										JOINT RightHandThumb3
										{
											OFFSET -2.898338 -1.673355 1.673357
											CHANNELS 3 Xrotation Yrotation Zrotation
											End Site
											{
												OFFSET 0.295959 3.727692 -0.131651
											}
										}
									}
								}
								JOINT RightHandIndex1
								{
									OFFSET -14.190811 -0.254547 3.840278
									CHANNELS 3 Xrotation Yrotation Zrotation
									JOINT RightHandIndex2
									{
										OFFSET -3.551727 0.000000 -0.000000
										CHANNELS 3 Xrotation Yrotation Zrotation
										JOINT RightHandIndex3
										{
											OFFSET -2.894196 0.000000 0.000000
											CHANNELS 3 Xrotation Yrotation Zrotation
											End Site
											{
												OFFSET 1.000603 2.690872 0.366626
											}
										}
									}
								}
								JOINT RightHandMiddle1
								{
									OFFSET -13.776489 0.000000 0.000000
									CHANNELS 3 Xrotation Yrotation Zrotation
									JOINT RightHandMiddle2
									{
										OFFSET -3.438232 0.000000 0.000000
										CHANNELS 3 Xrotation Yrotation Zrotation
										JOINT RightHandMiddle3
										{
											OFFSET -3.691551 0.000000 0.000000
											CHANNELS 3 Xrotation Yrotation Zrotation
											End Site
											{
												OFFSET 1.082298 3.499527 0.457670
											}
										}
									}
								}
								JOINT RightHandRing1
								{
									OFFSET -13.966164 -0.268127 -3.067488
									CHANNELS 3 Xrotation Yrotation Zrotation
									JOINT RightHandRing2
									{
										OFFSET -3.162567 0.000000 0.000000
										CHANNELS 3 Xrotation Yrotation Zrotation
										JOINT RightHandRing3
										{
											OFFSET -3.324348 0.000000 0.000000
											CHANNELS 3 Xrotation Yrotation Zrotation
											End Site
											{
												OFFSET 0.861900 3.184998 0.405154
											}
										}
									}
								}
								JOINT RightHandPinky1
								{
									OFFSET -13.131393 -0.168503 -5.746925
									CHANNELS 3 Xrotation Yrotation Zrotation
									JOINT RightHandPinky2
									{
										OFFSET -2.849182 0.000000 0.000000
										CHANNELS 3 Xrotation Yrotation Zrotation
										JOINT RightHandPinky3
										{
											OFFSET -2.805038 0.000000 0.000000
											CHANNELS 3 Xrotation Yrotation Zrotation
											End Site
											{
												OFFSET 0.882500 2.642609 0.325652
											}
										}
									}
								}
							}
							JOINT Right_Sleeve
							{
								OFFSET -6.592125 -0.646545 0.805568
								CHANNELS 3 Xrotation Yrotation Zrotation
								End Site
								{
									OFFSET 0.000179 20.275787 -0.000000
								}
							}
						}
					}
				}
				JOINT Bind_Right_JacketString
				{
					OFFSET -3.534800 11.969597 7.200700
					CHANNELS 3 Xrotation Yrotation Zrotation
					JOINT Bind_Right_JacketString1
					{
						OFFSET -0.319900 -6.102600 2.794100
						CHANNELS 3 Xrotation Yrotation Zrotation
						End Site
						{
							OFFSET 0.000000 6.719452 0.000000
						}
					}
				}
				JOINT Bind_Left_JacketString
				{
					OFFSET 2.904800 11.969597 7.200700
					CHANNELS 3 Xrotation Yrotation Zrotation
					JOINT Bind_Left_JacketString1
					{
						OFFSET 0.364800 -5.904503 3.186800
						CHANNELS 3 Xrotation Yrotation Zrotation
						End Site
						{
							OFFSET 0.000000 6.719513 0.000000
						}
					}
				}
				JOINT HairE
				{
					OFFSET 5.915200 17.612701 -11.592200
					CHANNELS 3 Xrotation Yrotation Zrotation
					JOINT HairE1
					{
						OFFSET 0.289200 -7.171898 -1.284500
						CHANNELS 3 Xrotation Yrotation Zrotation
						End Site
						{
							OFFSET 0.000000 7.291756 0.000000
						}
					}
				}
				JOINT HairF
				{
					OFFSET -0.864800 17.612701 -11.592200
					CHANNELS 3 Xrotation Yrotation Zrotation
					JOINT HairF1
					{
						OFFSET 0.000000 -14.087097 -2.127501
						CHANNELS 3 Xrotation Yrotation Zrotation
						End Site
						{
							OFFSET 0.000000 14.246841 0.000000
						}
					}
				}
				JOINT HairG
				{
					OFFSET -8.087700 17.612701 -11.592200
					CHANNELS 3 Xrotation Yrotation Zrotation
					JOINT HairG1
					{
						OFFSET -0.293600 -6.081398 -0.910100
						CHANNELS 3 Xrotation Yrotation Zrotation
						End Site
						{
							OFFSET 0.000000 6.156120 0.000000
						}
					}
				}
			}
		}
	}
	JOINT Pouch
	{
		OFFSET 0.000000 4.394501 10.847300
		CHANNELS 3 Xrotation Yrotation Zrotation
		End Site
		{
			OFFSET 0.000000 21.880577 0.000000
		}
	}
	JOINT Bag
	{
		OFFSET -13.229000 4.813004 -0.593300
		CHANNELS 3 Xrotation Yrotation Zrotation
		End Site
		{
			OFFSET 0.000000 21.880577 0.000000
		}
	}
	JOINT OccupyGuyFacialAnim_Joint
	{
		OFFSET 1.000000 -70.206398 -1.655000
		CHANNELS 3 Xrotation Yrotation Zrotation
		End Site
		{
			OFFSET 0.000000 21.880577 0.000000
		}
	}
}
MOTION
Frames: 4
Frame Time: 0.016667
-0.737686 60.645088 0.760033 11.682575 -49.446400 11.201360 -0.000001 0.000000 0.000000 -62.355160 29.780844 41.562442 46.271861 -20.448709 3.240079 -1.174379 1.237455 -9.131515 0.000000 0.000000 -0.000000 0.000001 0.000000 -0.000000 -32.413701 -1.686888 -23.577089 54.930731 2.258229 -6.882815 -29.999390 -3.201614 23.245412 -0.000000 -0.000002 0.000000 -0.000002 0.000002 -0.000000 10.969191 2.808641 -1.964518 6.100715 5.566532 -4.284687 -5.786916 6.328153 -3.046191 2.318647 9.363427 -0.265730 -4.146870 23.161860 -3.522969 -0.000001 -0.000000 -0.000001 -0.000001 -0.000000 -0.000001 -0.000001 -0.000000 -0.000001 -0.000001 -0.000000 -0.000001 -0.000001 -0.000000 -0.000001 -0.000001 -0.000000 -0.000001 -0.000001 -0.000000 -0.000001 -0.000001 -0.000000 -0.000001 -0.000001 -0.000000 -0.000001 -1.882850 -16.244770 -2.883351 -10.641495 2.224952 -45.488356 -22.862387 -25.786242 -15.871732 2.491069 -2.511888 6.860470 18.457953 -9.513759 13.216583 -1.150194 11.255271 -8.400888 0.000001 -0.000000 0.000003 -1.232783 -5.771925 -0.192321 0.133965 -0.197639 -4.602076 -0.000002 0.000002 -0.000003 1.884748 4.663374 -4.597379 0.476670 -1.009837 -12.986429 0.000004 -0.000000 -0.000001 3.024638 7.938927 -14.103442 -0.708050 -0.566186 -18.895746 0.000002 -0.000001 -0.000001 2.010361 6.305996 -22.386526 -0.815373 -0.210752 -16.746488 -0.000003 -0.000000 0.000003 -0.000001 0.000000 -0.000001 -5.080965 24.428093 1.493068 6.647377 -34.818563 57.612898 -21.031962 44.833799 19.961656 -0.087240 35.608477 7.474279 55.149580 18.649487 -29.698277 -0.442561 -14.180548 7.313124 0.000002 0.000001 0.000001 5.673422 7.585032 36.844171 1.050455 3.824489 68.900209 0.000000 -0.000001 -0.000002 -0.125670 1.886082 45.000735 -1.169013 3.204681 68.417663 -0.000001 -0.000001 0.000001 -5.312014 1.216654 58.508814 -0.745183 1.667569 48.011271 0.000002 0.000000 -0.000001 -7.756766 -9.376468 47.264028 -0.526081 1.541549 45.600511 0.000002 0.000000 -0.000003 0.000002 0.000004 -0.000006 0.000001 0.000001 0.000000 0.000001 0.000000 -0.000001 0.000001 0.000001 0.000001 0.000001 0.000001 0.000001 0.000001 0.000001 0.000000 0.000001 0.000000 -0.000001 0.000001 0.000001 0.000001 0.000001 0.000001 0.000001 0.000001 0.000001 0.000000 0.000001 0.000000 -0.000001 -0.000001 0.000000 0.000000 -0.000001 0.000000 0.000000 -0.000001 0.000000 0.000000 
-0.767560 60.640472 0.754821 11.666488 -49.589953 11.204881 -0.000000 0.000001 -0.000000 -62.298900 29.780625 41.614003 46.300964 -20.262564 3.305231 -1.208791 1.252648 -9.234665 0.000000 -0.000002 0.000000 0.000000 0.000000 -0.000000 -32.417772 -1.598288 -23.519639 54.988801 2.264487 -6.881553 -30.032591 -3.174927 23.218569 0.000000 -0.000002 -0.000000 0.000001 0.000001 -0.000000 10.966874 2.864853 -1.979124 6.133762 5.604290 -4.247333 -5.764553 6.336172 -3.016238 2.313015 9.402300 -0.496343 -4.187043 23.085204 -3.410674 -0.000001 -0.000000 -0.000000 -0.000001 -0.000000 -0.000000 -0.000001 -0.000000 -0.000000 -0.000001 -0.000000 -0.000000 -0.000001 -0.000000 -0.000000 -0.000001 -0.000000 -0.000000 -0.000001 -0.000000 -0.000000 -0.000001 -0.000000 -0.000000 -0.000001 -0.000000 -0.000000 -1.902988 -16.283507 -3.000821 -10.665532 2.222324 -45.395135 -22.827793 -25.744967 -15.838620 2.461414 -2.435280 6.885885 18.464913 -9.494833 13.214774 -1.134540 11.275833 -8.403364 0.000000 0.000001 -0.000001 -1.233051 -5.735417 -0.262388 0.133850 -0.200936 -4.674386 -0.000001 -0.000000 0.000002 1.884277 4.658513 -4.668123 0.474428 -1.015924 -13.148162 0.000001 -0.000001 0.000000 3.023528 7.934859 -14.172990 -0.709383 -0.572793 -19.056735 0.000001 0.000001 -0.000001 2.010021 6.304102 -22.455451 -0.816773 -0.219698 -16.907010 -0.000001 0.000002 0.000001 -0.000002 -0.000001 0.000000 -5.036446 24.265307 1.406468 6.704548 -34.680313 57.476056 -20.413762 44.915430 19.709394 0.211631 35.320254 6.345758 55.149567 18.649499 -29.698260 -0.442544 -14.180561 7.313218 0.000000 0.000001 0.000003 5.673397 7.584998 36.844130 1.050446 3.824522 68.900237 0.000001 0.000001 -0.000001 -0.125549 1.886249 45.000773 -1.169007 3.204650 68.417622 -0.000001 -0.000003 0.000008 -5.312140 1.216725 58.508746 -0.743519 1.669636 48.011254 -0.000001 -0.000001 0.000002 -7.756769 -9.376503 47.264007 -0.524057 1.543655 45.600460 -0.000000 0.000001 0.000001 -0.000001 0.000001 -0.000002 0.000000 -0.000000 0.000001 0.000000 0.000001 -0.000000 0.000000 -0.000000 -0.000000 0.000000 -0.000000 -0.000000 0.000000 -0.000000 0.000001 0.000000 0.000001 -0.000000 0.000000 -0.000000 -0.000000 0.000000 -0.000000 -0.000000 0.000000 -0.000000 0.000001 0.000000 0.000001 -0.000000 -0.000000 0.000001 -0.000000 -0.000000 0.000001 -0.000000 -0.000000 0.000001 -0.000000 
-0.800312 60.635132 0.747048 11.520770 -49.727988 11.131520 -0.000000 -0.000000 -0.000000 -62.145036 29.796775 41.653041 46.337055 -20.279720 3.366332 -1.276969 1.266801 -9.335583 0.000000 0.000000 -0.000000 0.000000 -0.000000 -0.000000 -32.336615 -1.526094 -23.503717 55.036387 2.303449 -6.874850 -30.009447 -3.140420 23.181162 0.000000 -0.000002 -0.000000 -0.000001 0.000001 -0.000000 10.986771 2.903405 -2.002572 6.210105 5.609814 -4.231206 -5.697417 6.318249 -3.012859 2.193451 9.464192 -0.640305 -4.095897 23.049775 -3.380866 -0.000000 0.000000 0.000000 -0.000000 0.000000 0.000000 -0.000000 0.000000 0.000000 -0.000000 0.000000 -0.000000 -0.000000 0.000000 -0.000000 -0.000000 0.000000 -0.000000 -0.000000 0.000000 -0.000000 -0.000000 0.000000 0.000000 -0.000000 0.000000 0.000000 -1.908074 -16.258762 -3.020663 -10.687434 2.247396 -45.360041 -22.769663 -25.731454 -15.803243 2.450934 -2.428307 6.875494 18.484920 -9.440095 13.209263 -1.089327 11.335338 -8.410320 0.000001 0.000001 0.000001 -1.233498 -5.629208 -0.465562 0.133381 -0.210502 -4.883979 -0.000002 -0.000003 -0.000001 1.883519 4.644745 -4.873348 0.467270 -1.037520 -13.616842 0.000001 0.000003 -0.000008 3.021429 7.923305 -14.374519 -0.715600 -0.596507 -19.523326 0.000002 -0.000004 0.000000 2.012098 6.297368 -22.655584 -0.821032 -0.245823 -17.372241 -0.000000 0.000000 0.000001 -0.000001 0.000001 -0.000001 -5.072081 24.344573 1.612733 6.672734 -34.749646 56.881703 -18.584964 45.084026 18.881570 0.891877 34.215928 3.308629 55.149526 18.649531 -29.698250 -0.442565 -14.180583 7.313329 0.000001 -0.000001 0.000001 5.673422 7.585003 36.844130 1.050404 3.824520 68.900285 -0.000001 0.000000 0.000000 -0.125383 1.886424 45.000773 -1.169048 3.204644 68.417704 0.000001 0.000001 -0.000006 -5.312276 1.216766 58.508814 -0.741733 1.671682 48.011128 0.000001 0.000001 0.000002 -7.756764 -9.376529 47.264018 -0.522049 1.545767 45.600406 0.000001 0.000004 -0.000001 -0.000001 0.000001 -0.000002 -0.000001 -0.000003 0.000002 -0.000001 -0.000000 -0.000001 -0.000001 -0.000003 0.000002 -0.000001 -0.000003 0.000002 -0.000001 -0.000003 0.000002 -0.000001 -0.000000 -0.000001 -0.000001 -0.000003 0.000002 -0.000001 -0.000003 0.000002 -0.000001 -0.000003 0.000002 -0.000001 -0.000000 -0.000001 -0.000000 -0.000000 -0.000000 -0.000000 -0.000000 -0.000000 -0.000000 -0.000000 -0.000000 
-0.829244 60.630653 0.715588 11.440930 -49.913315 11.121327 -0.000000 0.000001 -0.000000 -62.017271 29.832043 41.681731 46.330478 -20.123957 3.460847 -1.299892 1.259375 -9.478365 0.000000 -0.000000 -0.000000 0.000000 -0.000000 0.000000 -32.338552 -1.390835 -23.449732 55.133386 2.332697 -6.868601 -30.017725 -3.103983 23.123433 -0.000000 0.000000 0.000000 -0.000001 -0.000002 -0.000002 10.995558 2.938036 -2.024303 6.262221 5.612156 -4.216229 -5.653943 6.298717 -3.010386 2.178523 9.585919 -0.934679 -4.140471 23.001138 -3.228226 0.000000 0.000000 0.000000 0.000000 0.000000 0.000000 0.000000 0.000000 -0.000000 0.000000 0.000000 -0.000000 0.000000 -0.000000 -0.000000 0.000000 0.000000 -0.000000 0.000000 -0.000000 -0.000000 0.000000 0.000000 0.000000 0.000000 0.000000 0.000000 -1.889324 -15.962422 -3.044852 -10.743608 2.048044 -45.378954 -22.673255 -25.677837 -15.719306 2.461764 -2.430190 6.807752 18.516873 -9.352217 13.200244 -1.014993 11.429195 -8.416381 0.000002 0.000001 -0.000001 -1.230642 -5.459039 -0.790880 0.132218 -0.225664 -5.219955 -0.000001 0.000001 0.000000 1.882253 4.622876 -5.202232 0.455160 -1.074109 -14.367989 0.000004 0.000004 -0.000002 3.018054 7.905091 -14.697570 -0.726050 -0.634175 -20.270956 -0.000000 0.000001 -0.000001 2.014174 6.287026 -22.976360 -0.828510 -0.287382 -18.117845 -0.000003 0.000001 -0.000001 0.000002 0.000001 -0.000001 -5.079893 24.138013 1.822007 6.573144 -34.379552 55.764564 -14.830234 45.143299 17.007513 2.052968 32.012359 -1.966981 55.149533 18.649511 -29.698281 -0.442586 -14.180570 7.313394 -0.000000 0.000005 0.000001 5.673386 7.585040 36.844151 1.050410 3.824500 68.900271 -0.000003 0.000002 -0.000003 -0.125247 1.886597 45.000794 -1.168995 3.204678 68.417684 -0.000001 -0.000000 -0.000001 -5.312397 1.216890 58.508766 -0.740109 1.673724 48.011148 -0.000002 0.000002 0.000001 -7.756709 -9.376532 47.264042 -0.520064 1.547877 45.600313 -0.000002 0.000000 0.000002 -0.000002 -0.000001 0.000001 0.000001 0.000001 -0.000000 0.000000 0.000003 -0.000000 0.000001 0.000001 -0.000000 0.000001 0.000001 -0.000000 0.000001 0.000001 -0.000000 0.000000 0.000003 -0.000000 0.000001 0.000001 -0.000000 0.000001 0.000001 -0.000000 0.000001 0.000001 -0.000000 0.000000 0.000003 -0.000000 -0.000000 0.000001 -0.000000 -0.000000 0.000001 -0.000000 -0.000000 0.000001 -0.000000 
